<?xml version="1.0" encoding="utf-8"?>
<!-- Generator: Adobe Illustrator 16.0.0, SVG Export Plug-In . SVG Version: 6.00 Build 0)  -->
<!DOCTYPE svg PUBLIC "-//W3C//DTD SVG 1.1//EN" "http://www.w3.org/Graphics/SVG/1.1/DTD/svg11.dtd">
<svg version="1.1" id="Layer_1" xmlns="http://www.w3.org/2000/svg" xmlns:xlink="http://www.w3.org/1999/xlink" x="0px" y="0px"
	 width="474.643px" height="640px" viewBox="402.677 0 474.643 640" enable-background="new 402.677 0 474.643 640"
	 xml:space="preserve">
<g id="XMLID_7_">
	<path id="XMLID_8_" fill="#474747" d="M636.83,118.584c-29.572,20.799-63.089,44.374-81.047,83.376
		c-31.191,68.041,63.828,142.264,67.889,145.39c0.944,0.729,2.073,1.091,3.2,1.091c1.195,0,2.394-0.409,3.367-1.225
		c1.887-1.578,2.422-4.258,1.288-6.438c-0.345-0.664-34.45-66.914-33.184-114.442c0.449-16.552,23.614-35.33,48.142-55.212
		c22.463-18.21,47.924-38.849,62.821-62.993c32.705-53.145-3.645-105.402-4.017-105.923c-1.443-2.027-4.108-2.764-6.387-1.763
		c-2.277,1.003-3.538,3.466-3.019,5.898c0.073,0.344,7.144,34.902-12.526,70.505C675.253,91.56,657.449,104.084,636.83,118.584z"/>
	<path id="XMLID_9_" fill="#474747" d="M761.42,142.021c2.086-1.571,2.699-4.438,1.436-6.725s-4.014-3.296-6.456-2.369
		c-5.023,1.909-123.021,47.391-123.021,102.349c0,37.881,16.183,57.896,27.998,72.51c4.636,5.73,8.637,10.681,9.955,14.907
		c3.712,12.179-5.083,34.189-8.78,41.644c-1.064,2.146-0.543,4.74,1.271,6.306c0.979,0.847,2.203,1.273,3.429,1.273
		c1.043,0,2.09-0.311,2.994-0.939c2.029-1.411,49.585-35.033,41.055-75.542c-3.177-15.396-10.743-26.647-17.42-36.574
		c-10.344-15.379-17.813-26.49-6.479-47.01C700.682,187.92,760.813,142.476,761.42,142.021z"/>
	<path id="XMLID_10_" fill="#474747" d="M454.273,372.791c-2.022,6.054-1.068,12.066,2.76,17.381
		c12.791,17.757,58.099,27.537,127.584,27.537c0.004,0,0.006,0,0.008,0c9.416,0,19.355-0.185,29.537-0.55
		c111.093-3.979,152.298-38.587,153.998-40.059c1.853-1.604,2.348-4.273,1.195-6.436c-1.151-2.159-3.637-3.244-6.01-2.592
		c-39.124,10.683-112.185,14.475-162.858,14.475c-56.704,0-85.582-4.083-92.651-7.099c3.628-4.981,26.003-13.877,53.729-19.33
		c2.65-0.521,4.473-2.967,4.209-5.655c-0.262-2.688-2.52-4.738-5.221-4.738C544.299,345.729,462.793,347.034,454.273,372.791z"/>
	<path id="XMLID_11_" fill="#474747" d="M826.014,337.148c-22.914,0-44.643,11.481-45.558,11.972
		c-2.119,1.135-3.193,3.563-2.612,5.897c0.584,2.331,2.68,3.971,5.084,3.973c0.487,0.002,48.877,0.396,53.262,28.045
		c3.882,23.852-45.786,62.499-65.253,75.379c-2.103,1.392-2.919,4.081-1.942,6.404c0.829,1.979,2.757,3.217,4.835,3.217
		c0.362,0,0.729-0.038,1.095-0.117c4.621-0.986,113.007-24.87,101.548-87.978C869.479,345.266,845.172,337.148,826.014,337.148z"/>
	<path id="XMLID_12_" fill="#474747" d="M751.684,454.692c0.379-2.022-0.464-4.079-2.146-5.26L723.55,431.23
		c-1.268-0.889-2.868-1.168-4.354-0.772c-0.271,0.071-27.449,7.215-66.906,11.596c-15.66,1.757-33.2,2.685-50.729,2.685
		c-39.446,0-65.239-4.636-68.995-8.034c-0.497-0.955-0.341-1.389-0.252-1.631c0.682-1.898,4.339-4.154,6.697-5.046
		c2.604-0.963,4.009-3.792,3.197-6.448c-0.808-2.656-3.546-4.222-6.249-3.571c-26.069,6.291-38.817,15.089-37.89,26.147
		c1.646,19.604,47.062,29.668,85.455,32.331c5.521,0.378,11.492,0.57,17.743,0.57c0.005,0,0.007,0,0.012,0
		c63.842,0,145.687-20.03,146.505-20.233C749.78,458.329,751.304,456.715,751.684,454.692z"/>
	<path id="XMLID_13_" fill="#474747" d="M555.752,496.774c1.969-1.282,2.842-3.715,2.143-5.955
		c-0.695-2.241-2.793-3.712-5.146-3.684c-3.493,0.093-34.188,1.479-36.335,21.021c-0.65,5.84,1.021,11.174,4.973,15.854
		c11.021,13.061,40.769,20.821,90.928,23.732c5.934,0.354,11.96,0.532,17.917,0.532c63.77,0,106.717-19.967,108.515-20.815
		c1.744-0.824,2.894-2.537,2.996-4.463c0.104-1.925-0.857-3.752-2.503-4.757l-32.844-20.051c-1.14-0.693-2.504-0.926-3.805-0.658
		c-0.208,0.044-21.062,4.369-52.532,8.644c-5.954,0.809-13.413,1.219-22.163,1.219c-31.438,0-66.403-5.137-73.11-8.498
		C554.688,498.265,554.81,497.467,555.752,496.774z"/>
	<path id="XMLID_14_" fill="#474747" d="M600.51,608.561c146.066-0.124,224.463-26.1,239.565-42.444
		c5.347-5.785,5.923-11.261,5.468-14.836c-1.122-8.802-9.136-14.188-10.047-14.772c-2.192-1.41-5.135-1.04-6.845,0.933
		c-1.706,1.975-1.746,4.854-0.033,6.825c0.921,1.187,1.454,3.169-1.24,5.865c-6.037,5.638-66.932,22.754-168.319,27.896
		c-13.89,0.724-28.455,1.089-43.296,1.091c-90.777,0-157.215-12.434-165.936-19.681c3.364-4.828,26.861-12.547,51.853-16.908
		c2.816-0.491,4.72-3.146,4.283-5.971c-0.437-2.823-3.041-4.77-5.887-4.397c-0.705,0.095-3.095,0.241-5.866,0.409
		c-41.235,2.518-88.887,8.131-91.373,29.375c-0.756,6.476,1.169,12.351,5.72,17.467c11.137,12.513,43.146,29.147,191.947,29.147
		C600.508,608.561,600.508,608.561,600.51,608.561z"/>
	<path id="XMLID_15_" fill="#474747" d="M868.766,570.721c-2.063-0.955-4.503-0.473-6.045,1.189
		c-0.217,0.23-22.176,23.195-88.205,36.68c-25.277,5.065-72.729,7.634-141.031,7.634c-68.433,0-133.547-2.691-134.196-2.72
		c-2.719-0.132-5.046,1.845-5.415,4.522c-0.372,2.677,1.353,5.196,3.98,5.821c0.678,0.162,68.918,16.149,162.224,16.149
		c44.751,0,88.299-3.637,129.435-10.81c76.701-13.445,82.071-51.479,82.263-53.091C872.039,573.845,870.826,571.676,868.766,570.721
		z"/>
</g>
</svg>
