<?xml version="1.0" encoding="utf-8"?>
<!-- Generator: Adobe Illustrator 16.0.0, SVG Export Plug-In . SVG Version: 6.00 Build 0)  -->
<!DOCTYPE svg PUBLIC "-//W3C//DTD SVG 1.1//EN" "http://www.w3.org/Graphics/SVG/1.1/DTD/svg11.dtd">
<svg version="1.1" id="Capa_1" xmlns="http://www.w3.org/2000/svg" xmlns:xlink="http://www.w3.org/1999/xlink" x="0px" y="0px"
	 width="639.999px" height="640px" viewBox="320.003 0 639.999 640" enable-background="new 320.003 0 639.999 640"
	 xml:space="preserve">
<path fill="#303C42" d="M956.865,31.405c-2.539-3.008-6.264-4.74-10.195-4.74H413.334c-6.497,0-12.044,4.675-13.138,11.082
	l-18.281,106.667c-0.664,3.88,0.417,7.839,2.943,10.846c2.539,3.007,6.262,4.74,10.195,4.74h409.285l-6.849,40H383.62
	c-6.498,0-12.043,4.675-13.137,11.082l-18.282,106.666c-0.664,3.881,0.417,7.839,2.943,10.847c2.539,3.008,6.262,4.74,10.195,4.74
	h409.299l-13.905,81.12l-183.399,58.347l-109.154-42.448l7.098-41.433c0.664-3.867-0.416-7.839-2.942-10.846
	c-2.539-3.008-6.263-4.74-10.195-4.74H353.909c-6.498,0-12.043,4.675-13.137,11.081l-20.573,120.001
	c-1.081,6.25,2.396,12.382,8.308,14.675l240.001,93.334c1.55,0.612,3.189,0.911,4.831,0.911c1.367,0,2.722-0.209,4.036-0.625
	l293.335-93.334c4.753-1.51,8.269-5.548,9.103-10.456l80-466.668C960.471,38.384,959.393,34.413,956.865,31.405z"/>
<path fill="#0288D1" d="M854.898,496.42l-281.121,89.454L348.321,498.19L365.144,400h81.172l-6.263,36.575
	c-1.082,6.25,2.396,12.383,8.308,14.676L572.06,499.35c2.825,1.106,5.965,1.186,8.868,0.286l195.613-62.227
	c4.752-1.51,8.27-5.548,9.102-10.456l17.941-104.7c0.664-3.881-0.416-7.839-2.941-10.847c-2.539-3.008-6.264-4.74-10.194-4.74
	H381.146l13.711-80h413.869c6.498,0,12.044-4.675,13.139-11.082l11.433-66.667c0.664-3.867-0.416-7.839-2.941-10.846
	c-2.539-3.007-6.264-4.74-10.195-4.74h-409.3l13.711-80h506.291L854.898,496.42z"/>
<polygon opacity="0.1" enable-background="new    " points="905.479,53.332 833.23,474.752 552.109,564.205 350.449,485.777 
	348.321,498.19 573.777,585.873 854.898,496.42 930.862,53.332 "/>
<path fill="#474747" d="M956.865,31.405c-2.539-3.008-6.264-4.74-10.195-4.74H413.334c-6.497,0-12.044,4.675-13.138,11.082
	l-18.281,106.667c-0.664,3.88,0.417,7.839,2.943,10.846c2.539,3.007,6.262,4.74,10.195,4.74h409.285l-6.849,40H383.62
	c-6.498,0-12.043,4.675-13.137,11.082l-18.282,106.666c-0.664,3.881,0.417,7.839,2.943,10.847c2.539,3.008,6.262,4.74,10.195,4.74
	h409.299l-13.905,81.12l-183.399,58.347l-109.154-42.448l7.098-41.433c0.664-3.867-0.416-7.839-2.942-10.846
	c-2.539-3.008-6.263-4.74-10.195-4.74H353.909c-6.498,0-12.043,4.675-13.137,11.081l-20.573,120.001
	c-1.081,6.25,2.396,12.382,8.308,14.675l240.001,93.334c1.55,0.612,3.189,0.911,4.831,0.911c1.367,0,2.722-0.209,4.036-0.625
	l293.335-93.334c4.753-1.51,8.269-5.548,9.103-10.456l80-466.668C960.471,38.384,959.393,34.413,956.865,31.405z"/>
</svg>
