<?xml version="1.0" encoding="utf-8"?>
<!-- Generator: Adobe Illustrator 16.0.0, SVG Export Plug-In . SVG Version: 6.00 Build 0)  -->
<!DOCTYPE svg PUBLIC "-//W3C//DTD SVG 1.1//EN" "http://www.w3.org/Graphics/SVG/1.1/DTD/svg11.dtd">
<svg version="1.1" id="Layer_1" xmlns="http://www.w3.org/2000/svg" xmlns:xlink="http://www.w3.org/1999/xlink" x="0px" y="0px"
	 width="563.264px" height="640px" viewBox="356.5 0 563.264 640" enable-background="new 356.5 0 563.264 640"
	 xml:space="preserve">
<path fill="#474747" d="M360.297,21.187l41.538,531.395c0.623,7.979,6.024,14.784,13.655,17.203l218.568,69.298
	c3.865,1.225,8.017,1.225,11.881,0l218.569-69.298c7.631-2.419,13.032-9.225,13.655-17.203l41.538-531.395
	C920.596,9.762,911.566,0,900.107,0H379.894C368.435,0,359.406,9.762,360.297,21.187z M813.183,186.061H542.477l8.17,75.336h256.648
	l-16.789,214.774l-150.505,47.718l-150.506-47.718l-8.771-112.206h78.996v55.039l82.392,22.112l81.897-22.112l6.354-87.717H478.17
	l-16.744-214.211h357.148L813.183,186.061z"/>
</svg>
